<svg width="18" height="35" viewBox="0 0 18 35" fill="none" xmlns="http://www.w3.org/2000/svg">
<path d="M0 0H16C17.1046 0 18 0.895431 18 2V33C18 34.1046 17.1046 35 16 35H0V0Z" fill="white"/>
<path d="M12.8544 17.1471C12.7607 17.0533 12.6335 17.0006 12.5009 17.0006H6.70789L8.85489 14.8546C8.94878 14.7607 9.00152 14.6334 9.00152 14.5006C9.00152 14.3679 8.94878 14.2405 8.85489 14.1466C8.76101 14.0527 8.63367 14 8.50089 14C8.36812 14 8.24078 14.0527 8.14689 14.1466L5.14689 17.1466C5.10033 17.1931 5.06339 17.2483 5.03818 17.309C5.01297 17.3697 5 17.4349 5 17.5006C5 17.5664 5.01297 17.6315 5.03818 17.6923C5.06339 17.753 5.10033 17.8082 5.14689 17.8546L8.14689 20.8546C8.19338 20.9011 8.24857 20.938 8.30931 20.9632C8.37005 20.9883 8.43515 21.0013 8.50089 21.0013C8.56664 21.0013 8.63174 20.9883 8.69248 20.9632C8.75322 20.938 8.80841 20.9011 8.85489 20.8546C8.90138 20.8081 8.93826 20.753 8.96342 20.6922C8.98858 20.6315 9.00152 20.5664 9.00152 20.5006C9.00152 20.4349 8.98858 20.3698 8.96342 20.309C8.93826 20.2483 8.90138 20.1931 8.85489 20.1466L6.70789 18.0006H12.5009C12.6335 18.0006 12.7607 17.948 12.8544 17.8542C12.9482 17.7604 13.0009 17.6332 13.0009 17.5006C13.0009 17.368 12.9482 17.2408 12.8544 17.1471Z" fill="black"/>
</svg>
