<svg width="18" height="35" viewBox="0 0 18 35" fill="none" xmlns="http://www.w3.org/2000/svg">
<path d="M0 2C0 0.89543 0.895431 0 2 0H18V35H2C0.89543 35 0 34.1046 0 33V2Z" fill="white"/>
<path d="M5.14643 17.1465C5.24019 17.0528 5.36735 17.0001 5.49994 17.0001H11.2923L9.14554 14.8545C9.05166 14.7606 8.99892 14.6333 8.99892 14.5005C8.99892 14.3678 9.05166 14.2405 9.14554 14.1466C9.23941 14.0527 9.36674 14 9.4995 14C9.63226 14 9.75958 14.0527 9.85346 14.1466L12.8531 17.1461C12.8997 17.1925 12.9366 17.2477 12.9618 17.3084C12.987 17.3691 13 17.4342 13 17.5C13 17.5658 12.987 17.6309 12.9618 17.6916C12.9366 17.7523 12.8997 17.8075 12.8531 17.8539L9.85346 20.8534C9.80698 20.8999 9.75179 20.9367 9.69106 20.9619C9.63033 20.9871 9.56523 21 9.4995 21C9.43376 21 9.36867 20.9871 9.30794 20.9619C9.2472 20.9367 9.19202 20.8999 9.14554 20.8534C9.09905 20.8069 9.06218 20.7517 9.03703 20.691C9.01187 20.6303 8.99892 20.5652 8.99892 20.4995C8.99892 20.4337 9.01187 20.3686 9.03703 20.3079C9.06218 20.2472 9.09905 20.192 9.14554 20.1455L11.2923 17.9999H5.49994C5.36735 17.9999 5.24019 17.9472 5.14643 17.8535C5.05267 17.7597 5 17.6326 5 17.5C5 17.3674 5.05267 17.2403 5.14643 17.1465Z" fill="black"/>
</svg>
